<svg xmlns="http://www.w3.org/2000/svg" viewBox="0 0 400 100" width="400" height="100">
  <!-- Dark background for white logo preview -->
  <rect width="400" height="100" fill="#0f766e"/>
  
  <!-- House/Shield Icon (white version) -->
  <g transform="translate(10, 8)">
    <path d="M42 4 L72 18 L72 52 Q72 72 42 82 Q12 72 12 52 L12 18 Z" fill="white" opacity="0.95"/>
    <polygon points="42,22 58,34 58,58 26,58 26,34" fill="#0f766e"/>
    <polygon points="42,18 64,34 20,34" fill="#eab308"/>
    <rect x="37" y="44" width="10" height="14" fill="white" rx="2"/>
    <rect x="29" y="38" width="7" height="7" fill="white" rx="1"/>
    <rect x="48" y="38" width="7" height="7" fill="white" rx="1"/>
  </g>

  <!-- Text white version -->
  <text x="98" y="52" font-family="'Helvetica Neue', Arial, sans-serif" font-weight="800" font-size="38" fill="white">HO</text>
  <text x="98" y="72" font-family="'Helvetica Neue', Arial, sans-serif" font-weight="400" font-size="16" fill="rgba(255,255,255,0.75)" letter-spacing="3">insurance</text>
  <text x="214" y="52" font-family="'Helvetica Neue', Arial, sans-serif" font-weight="800" font-size="38" fill="#eab308">.com</text>
  <text x="98" y="88" font-family="'Helvetica Neue', Arial, sans-serif" font-weight="300" font-size="10" fill="rgba(255,255,255,0.55)" letter-spacing="1">FLORIDA HOME INSURANCE SPECIALISTS</text>
</svg>
